<?xml version="1.0" encoding="utf-8"?>
<!-- Generator: Adobe Illustrator 25.2.1, SVG Export Plug-In . SVG Version: 6.00 Build 0)  -->
<svg version="1.1" id="Layer_1" xmlns="http://www.w3.org/2000/svg" xmlns:xlink="http://www.w3.org/1999/xlink" x="0px" y="0px"
	 viewBox="0 0 200 192" style="enable-background:new 0 0 200 192;" xml:space="preserve">
<style type="text/css">
	.st0{fill:url(#SVGID_1_);}
</style>
<linearGradient id="SVGID_1_" gradientUnits="userSpaceOnUse" x1="21.503" y1="-325.1313" x2="166.8476" y2="-139.0985" gradientTransform="matrix(1 0 0 -1 0 -162)">
	<stop  offset="0" style="stop-color:#3BB4E4"/>
	<stop  offset="0.7319" style="stop-color:#356581"/>
	<stop  offset="1" style="stop-color:#33475B"/>
</linearGradient>
<path class="st0" d="M199,3.7c-2.1,1.4-5.7,6-5.7,20.5v82.6c0,24.8-11.8,48.7-33.5,65c-14.7,11-35.1,19.9-62.4,19.9
	c-31,0-52.5-9.8-67.2-21.8C11,154.1,0.6,132,0.4,109.2L0,0c0,0,48.7,3.2,48.7,24.2v72.3c0,13.6,6.8,26.9,19.2,35.3
	c8.7,5.9,19,9,29.5,8.8c13.7,0,23.8-4.6,31.1-10.3c5.1-3.9,9.3-9,12.2-14.7c2.9-5.8,4.4-12.1,4.4-18.6V26c0-2.1,0.2-4.1,0.8-6.2
	c1.8-6.1,7.2-16.7,24.5-16.7L200,3C200,3.1,199.3,3.5,199,3.7z"/>
</svg>
